<svg id="Layer_2" data-name="Layer 2" xmlns="http://www.w3.org/2000/svg" xmlns:xlink="http://www.w3.org/1999/xlink" viewBox="0 0 2000 2000"><defs><style>.cls-1{fill:#fff;}.cls-2{fill:#231f20;}.cls-3{fill:url(#linear-gradient);}.cls-4{fill:url(#linear-gradient-2);}.cls-5{fill:url(#linear-gradient-3);}</style><linearGradient id="linear-gradient" x1="553.19" y1="653.66" x2="646.85" y2="653.66" gradientUnits="userSpaceOnUse"><stop offset="0" stop-color="#46a4dc"/><stop offset="0.99" stop-color="#4a5fab"/></linearGradient><linearGradient id="linear-gradient-2" x1="1270.85" y1="1031.21" x2="1526.04" y2="567.22" gradientUnits="userSpaceOnUse"><stop offset="0.27" stop-color="#4f87c6"/><stop offset="0.81" stop-color="#77499d"/></linearGradient><linearGradient id="linear-gradient-3" x1="1527.91" y1="868.4" x2="1172.18" y2="1523.15" xlink:href="#linear-gradient-2"/></defs><circle class="cls-1" cx="1000" cy="997.88" r="770.77"/><path class="cls-2" d="M818.37,874.29q53.94-61.74,133-61.74t133,61.74q61.1,70.05,61.13,177,0,107.1-61.13,177-53.92,61.76-133,61.75t-133-61.75q-61.17-69.94-61.12-177T818.37,874.29Zm61.13,45.28Q836.36,969,836.35,1051.29T875.9,1178.9q32.37,37,75.51,37t75.51-37q39.52-45.26,39.55-127.61t-43.14-131.72q-28.83-32.9-71.92-32.93T879.5,919.57Z"/><path class="cls-2" d="M642.33,1213l-61.27,72c-10.11,11.86-27.87,3.79-27.87-12.66V897.35a19.62,19.62,0,0,1,4.46-12.59l61.27-72.7c10.08-12,27.93-3.91,27.93,12.59v375.68A19.56,19.56,0,0,1,642.33,1213Z"/><circle class="cls-3" cx="600.02" cy="653.66" r="46.83"/><path class="cls-4" d="M1340.39,996.78h-81.11a18.27,18.27,0,0,1-15.39-28.11l207.78-305a18.28,18.28,0,0,1,15.4-8.44h0a18.27,18.27,0,0,1,17,24.9l-126.68,305A18.26,18.26,0,0,1,1340.39,996.78Z"/><path class="cls-5" d="M1433.64,949h81.11a18.26,18.26,0,0,1,15.39,28.1l-207.79,305.05a18.25,18.25,0,0,1-15.39,8.44h0a18.28,18.28,0,0,1-17-24.91l126.68-305A18.28,18.28,0,0,1,1433.64,949Z"/></svg>